<svg width="414" height="1274" viewBox="0 0 414 1274" fill="none" xmlns="http://www.w3.org/2000/svg">
<path d="M-2 1H136.5C177.921 1 211.5 34.5786 211.5 76V1258.5" stroke="#3A3A3A" stroke-width="1.5"/>
<path d="M-2 409.5H136.5C177.921 409.5 211.5 443.079 211.5 484.5V1265.5" stroke="#3A3A3A" stroke-width="1.5"/>
<path d="M424.5 511.5H286C244.579 511.5 211 545.079 211 586.5V1274" stroke="#3A3A3A" stroke-width="1.5"/>
<path d="M424.5 112H286C244.579 112 211 145.579 211 187V874.5" stroke="#3A3A3A" stroke-width="1.5"/>
<path d="M424.5 920.5H286C244.579 920.5 211 954.079 211 995.5V1274" stroke="#3A3A3A" stroke-width="1.5"/>
<path d="M-2 811.5H136.5C177.921 811.5 211.5 845.079 211.5 886.5V1259" stroke="#3A3A3A" stroke-width="1.5"/>
</svg>
